{
.appVersion = "3151";
.formatVersion = 3;
DisplayStrings = (
d
);
customParameters = (
{
name = vendorID;
value = COMM;
},
{
name = panose;
value = (
2,
13,
2,
4,
3,
5,
2,
5,
2,
3
);
},
{
name = unicodeRanges;
value = (
0,
1,
2
);
},
{
name = codePageRanges;
value = (
"1252",
"1250",
"1254",
"1257",
"bit 29"
);
},
{
name = fsType;
value = (
2
);
},
{
name = glyphOrder;
value = (
.notdef,
Eth,
eth,
Lslash,
lslash,
Scaron,
scaron,
Yacute,
yacute,
Thorn,
thorn,
Zcaron,
zcaron,
onehalf,
onequarter,
onesuperior,
threequarters,
threesuperior,
twosuperior,
brokenbar,
minus,
multiply,
space,
exclam,
quotedbl,
numbersign,
dollar,
percent,
ampersand,
quotesingle,
parenleft,
parenright,
asterisk,
plus,
comma,
hyphen,
period,
slash,
zero,
one,
two,
three,
four,
five,
six,
seven,
eight,
nine,
colon,
semicolon,
less,
equal,
greater,
question,
at,
A,
B,
C,
D,
E,
F,
G,
H,
I,
J,
K,
L,
M,
N,
O,
P,
Q,
R,
S,
T,
U,
V,
W,
X,
Y,
Z,
bracketleft,
backslash,
bracketright,
asciicircum,
underscore,
grave,
a,
b,
c,
d,
e,
f,
g,
h,
i,
j,
k,
l,
m,
n,
o,
p,
q,
r,
s,
t,
u,
v,
w,
x,
y,
z,
braceleft,
bar,
braceright,
asciitilde,
Adieresis,
Aring,
Ccedilla,
Eacute,
Ntilde,
Odieresis,
Udieresis,
aacute,
agrave,
acircumflex,
adieresis,
atilde,
aring,
ccedilla,
eacute,
egrave,
ecircumflex,
edieresis,
iacute,
igrave,
icircumflex,
idieresis,
ntilde,
oacute,
ograve,
ocircumflex,
odieresis,
otilde,
uacute,
ugrave,
ucircumflex,
udieresis,
dagger,
degree,
cent,
sterling,
section,
bullet,
paragraph,
germandbls,
registered,
copyright,
trademark,
acute,
dieresis,
notequal,
AE,
Oslash,
infinity,
plusminus,
lessequal,
greaterequal,
yen,
mu,
partialdiff,
summation,
product,
pi,
integral,
ordfeminine,
ordmasculine,
Omega,
ae,
oslash,
questiondown,
exclamdown,
logicalnot,
radical,
florin,
approxequal,
Delta,
guillemotleft,
guillemotright,
ellipsis,
uni00A0,
Agrave,
Atilde,
Otilde,
OE,
oe,
endash,
emdash,
quotedblleft,
quotedblright,
quoteleft,
quoteright,
divide,
lozenge,
ydieresis,
Ydieresis,
fraction,
Euro,

glyphs = (
{
glyphname = zero;
kernLeft = zero;
kernRight = zero;
lastChange = "2023-04-04 19:31:55 +0000";
layers = (
{
hints = (
{
horizontal = 1;
place = (-13, 45);
place = (-13, 45);
type = Stem;
},
{
horizontal = 1;
place = (655, 44);
place = (655, 44);
type = Stem;
},
{
place = (34, 53);
place = (34, 53);
type = Stem;
},
{
place = (471, 53);
place = (471, 53);
type = Stem;
}
);
layerId = m01;
shapes = (
{
closed = 1;
nodes = (
(129,699,o),
(34,565,o),
(34,343,cs),
(34,125,o),
(121,-13,o),
(279,-13,cs),
(438,-13,o),
(524,125,o),
(524,343,cs),
(524,567,o),
(430,699,o),
(280,699,cs)
);
},
{
closed = 1;
nodes = (
(401,655,o),
(471,534,o),
(471,343,cs),
(471,148,o),
(404,32,o),
(280,32,cs),
(157,32,o),
(87,152,o),
(87,343,cs),
(87,538,o),
(157,655,o),
(280,655,cs)
);
}
);
width = 558;
}
);
note = zero;
unicode = 48;
},
{
glyphname = one;
kernLeft = one;
kernRight = one;
lastChange = "2023-04-04 06:47:42 +0000";
layers = (
{
hints = (
{
horizontal = 1;
place = (0, 21);
target = up;
type = BottomGhost;
},
{
horizontal = 1;
place = (526, 35);
place = (526, 35);
type = Stem;
},
{
horizontal = 1;
place = (689, -20);
target = down;
type = TopGhost;
},
{
place = (173, 51);
place = (173, 51);
type = Stem;
}
);
layerId = m01;
shapes = (
{
closed = 1;
nodes = (
(175,587,o),
(144,568,o),
(33,561,c),
(33,526,l),
(80,526,o),
(126,526,o),
(173,526,c),
(173,0,l),
(224,0,l),
(224,689,l),
(187,689,l)
);
}
);
width = 315;
}
);
note = one;
unicode = 49;
},
{
glyphname = two;
kernLeft = two;
kernRight = two;
lastChange = "2023-04-03 23:40:25 +0000";
layers = (
{
hints = (
{
horizontal = 1;
place = (0, 47);
place = (0, 47);
type = Stem;
},
{
horizontal = 1;
place = (654, 45);
place = (654, 45);
type = Stem;
},
{
place = (32, 56);
place = (32, 56);
type = Stem;
},
{
place = (409, 53);
place = (409, 53);
type = Stem;
},
{
place = (48, 51);
place = (48, 51);
type = Stem;
}
);
layerId = m01;
shapes = (
{
closed = 1;
nodes = (
(99,475,l),
(103,595,o),
(166,654,o),
(263,654,cs),
(351,654,o),
(409,602,o),
(409,504,cs),
(409,392,o),
(340,360,o),
(245,301,cs),
(144,238,o),
(32,171,o),
(32,0,c),
(456,0,l),
(456,47,l),
(88,47,l),
(99,155,o),
(181,206,o),
(263,257,cs),
(358,316,o),
(462,367,o),
(462,506,cs),
(462,613,o),
(386,699,o),
(264,699,cs),
(145,699,o),
(49,623,o),
(48,475,c)
);
}
);
width = 496;
}
);
note = two;
unicode = 50;
},
{
glyphname = three;
kernLeft = three;
kernRight = three;
lastChange = "2023-04-03 23:50:26 +0000";
layers = (
{
hints = (
{
horizontal = 1;
place = (-13, 48);
place = (-13, 48);
type = Stem;
},
{
horizontal = 1;
place = (340, 45);
place = (340, 45);
type = Stem;
},
{
horizontal = 1;
place = (655, 44);
place = (655, 44);
type = Stem;
},
{
place = (28, 53);
place = (28, 53);
type = Stem;
},
{
place = (416, 53);
place = (416, 53);
type = Stem;
},
{
place = (49, 52);
place = (49, 52);
type = Stem;
},
{
place = (392, 52);
place = (392, 52);
type = Stem;
}
);
layerId = m01;
shapes = (
{
closed = 1;
nodes = (
(101,487,l),
(101,580,o),
(155,655,o),
(254,655,cs),
(334,655,o),
(392,606,o),
(392,518,cs),
(392,438,o),
(339,385,o),
(254,385,cs),
(204,385,l),
(204,340,l),
(255,340,ls),
(356,340,o),
(416,283,o),
(416,189,cs),
(416,99,o),
(360,35,o),
(252,35,cs),
(155,35,o),
(86,93,o),
(81,203,c),
(28,203,l),
(28,72,o),
(124,-13,o),
(251,-13,cs),
(384,-13,o),
(469,65,o),
(469,186,cs),
(469,273,o),
(429,335,o),
(348,365,c),
(348,368,l),
(405,392,o),
(444,441,o),
(444,520,cs),
(444,630,o),
(362,699,o),
(256,699,cs),
(124,699,o),
(50,608,o),
(49,487,c)
);
}
);
width = 502;
}
);
note = three;
unicode = 51;
},
{
glyphname = four;
kernLeft = four;
kernRight = four;
lastChange = "2023-04-04 01:08:37 +0000";
layers = (
{
hints = (
{
horizontal = 1;
place = (0, 21);
target = up;
type = BottomGhost;
},
{
horizontal = 1;
place = (180, 45);
place = (180, 45);
type = Stem;
},
{
horizontal = 1;
place = (692, -20);
target = down;
type = TopGhost;
},
{
place = (22, 55);
place = (22, 55);
type = Stem;
},
{
place = (340, 51);
place = (340, 51);
type = Stem;
}
);
layerId = m01;
shapes = (
{
closed = 1;
nodes = (
(22,180,l),
(340,180,l),
(340,0,l),
(391,0,l),
(391,180,l),
(492,180,l),
(492,225,l),
(391,225,l),
(391,692,l),
(345,692,l),
(22,230,l)
);
},
{
closed = 1;
nodes = (
(340,601,l),
(340,225,l),
(77,225,l)
);
}
);
width = 518;
}
);
note = four;
unicode = 52;
},
{
glyphname = five;
kernLeft = five;
kernRight = five;
lastChange = "2023-04-04 01:35:03 +0000";
layers = (
{
hints = (
{
horizontal = 1;
place = (-13, 48);
place = (-13, 48);
type = Stem;
},
{
horizontal = 1;
place = (393, 46);
place = (393, 46);
type = Stem;
},
{
horizontal = 1;
place = (639, 46);
place = (639, 46);
type = Stem;
},
{
place = (28, 51);
place = (28, 51);
type = Stem;
},
{
place = (398, 53);
place = (398, 53);
type = Stem;
},
{
horizontal = 1;
place = (323, 63);
place = (323, 63);
type = Stem;
}
);
layerId = m01;
shapes = (
{
closed = 1;
nodes = (
(96,685,l),
(46,323,l),
(95,323,l),
(120,362,o),
(163,393,o),
(243,393,cs),
(336,393,o),
(398,327,o),
(398,219,cs),
(398,111,o),
(341,35,o),
(236,35,cs),
(136,35,o),
(90,90,o),
(79,176,c),
(28,176,l),
(29,66,o),
(116,-13,o),
(237,-13,cs),
(369,-13,o),
(451,84,o),
(451,217,cs),
(451,365,o),
(355,439,o),
(252,439,cs),
(181,439,o),
(141,419,o),
(104,386,c),
(102,386,l),
(136,639,l),
(422,639,l),
(422,685,l)
);
}
);
width = 484;
}
);
note = five;
unicode = 53;
},
{
glyphname = six;
kernLeft = six;
kernRight = six;
lastChange = "2023-04-04 01:39:47 +0000";
layers = (
{
hints = (
{
horizontal = 1;
place = (-13, 44);
place = (-13, 44);
type = Stem;
},
{
horizontal = 1;
place = (392, 44);
place = (392, 44);
type = Stem;
},
{
horizontal = 1;
place = (654, 45);
place = (654, 45);
type = Stem;
},
{
place = (34, 52);
place = (34, 52);
type = Stem;
},
{
place = (433, 53);
place = (433, 53);
type = Stem;
}
);
layerId = m01;
shapes = (
{
closed = 1;
nodes = (
(456,629,o),
(391,699,o),
(282,699,cs),
(119,699,o),
(34,545,o),
(34,347,cs),
(34,150,o),
(90,-13,o),
(273,-13,cs),
(403,-13,o),
(486,86,o),
(486,217,cs),
(486,347,o),
(400,436,o),
(274,436,cs),
(192,436,o),
(127,392,o),
(88,314,c),
(86,314,l),
(83,517,o),
(148,654,o),
(283,654,cs),
(359,654,o),
(407,602,o),
(414,530,c),
(466,530,l)
);
},
{
closed = 1;
nodes = (
(370,392,o),
(433,322,o),
(433,216,cs),
(433,110,o),
(369,31,o),
(271,31,cs),
(171,31,o),
(104,103,o),
(104,212,cs),
(104,317,o),
(177,392,o),
(273,392,cs)
);
}
);
width = 519;
}
);
note = six;
unicode = 54;
},
{
glyphname = seven;
kernLeft = seven;
kernRight = seven;
lastChange = "2023-04-04 01:44:03 +0000";
layers = (
{
hints = (
{
horizontal = 1;
place = (0, 21);
target = up;
type = BottomGhost;
},
{
horizontal = 1;
place = (639, 46);
place = (639, 46);
type = Stem;
},
{
place = (397, 54);
place = (397, 54);
type = Stem;
}
);
layerId = m01;
shapes = (
{
closed = 1;
nodes = (
(23,639,l),
(397,639,l),
(261,489,o),
(155,239,o),
(134,0,c),
(190,0,l),
(215,267,o),
(317,498,o),
(451,638,c),
(451,685,l),
(23,685,l)
);
}
);
width = 473;
}
);
note = seven;
unicode = 55;
},
{
glyphname = eight;
kernLeft = eight;
kernRight = eight;
lastChange = "2023-04-04 18:15:46 +0000";
layers = (
{
hints = (
{
horizontal = 1;
place = (-13, 45);
place = (-13, 45);
type = Stem;
},
{
horizontal = 1;
place = (347, 44);
place = (347, 44);
type = Stem;
},
{
horizontal = 1;
place = (655, 44);
place = (655, 44);
type = Stem;
},
{
place = (32, 53);
place = (32, 53);
type = Stem;
},
{
place = (437, 53);
place = (437, 53);
type = Stem;
},
{
place = (63, 52);
place = (63, 52);
type = Stem;
},
{
place = (405, 52);
place = (405, 52);
type = Stem;
}
);
layerId = m01;
shapes = (
{
closed = 1;
nodes = (
(147,699,o),
(63,625,o),
(63,524,cs),
(63,454,o),
(100,400,o),
(162,373,c),
(162,370,l),
(86,342,o),
(32,283,o),
(32,190,cs),
(32,65,o),
(135,-13,o),
(261,-13,cs),
(387,-13,o),
(490,61,o),
(490,190,cs),
(490,277,o),
(431,348,o),
(355,372,c),
(355,375,l),
(417,401,o),
(457,454,o),
(457,524,cs),
(457,619,o),
(383,699,o),
(260,699,cs)
);
},
{
closed = 1;
nodes = (
(370,347,o),
(437,280,o),
(437,190,cs),
(437,102,o),
(370,32,o),
(261,32,cs),
(149,32,o),
(85,101,o),
(85,190,cs),
(85,280,o),
(148,347,o),
(258,347,cs)
);
},
{
closed = 1;
nodes = (
(354,655,o),
(405,593,o),
(405,522,cs),
(405,453,o),
(350,391,o),
(258,391,cs),
(164,391,o),
(115,453,o),
(115,522,cs),
(115,593,o),
(168,655,o),
(260,655,cs)
);
}
);
width = 522;
}
);
note = eight;
unicode = 56;
},
{
glyphname = nine;
kernLeft = nine;
kernRight = nine;
lastChange = "2023-04-04 02:05:15 +0000";
layers = (
{
hints = (
{
horizontal = 1;
place = (-13, 45);
place = (-13, 45);
type = Stem;
},
{
horizontal = 1;
place = (250, 44);
place = (250, 44);
type = Stem;
},
{
horizontal = 1;
place = (655, 44);
place = (655, 44);
type = Stem;
},
{
place = (33, 53);
place = (33, 53);
type = Stem;
},
{
place = (432, 51);
place = (432, 51);
type = Stem;
}
);
layerId = m01;
shapes = (
{
closed = 1;
nodes = (
(327,250,o),
(394,294,o),
(432,371,c),
(434,207,o),
(400,32,o),
(236,32,cs),
(160,32,o),
(107,80,o),
(100,156,c),
(47,156,l),
(54,54,o),
(128,-13,o),
(237,-13,cs),
(421,-13,o),
(483,155,o),
(483,339,cs),
(483,536,o),
(431,699,o),
(246,699,cs),
(121,699,o),
(33,600,o),
(33,469,cs),
(33,339,o),
(119,250,o),
(245,250,cs)
);
},
{
closed = 1;
nodes = (
(147,294,o),
(86,364,o),
(86,470,cs),
(86,576,o),
(151,655,o),
(248,655,cs),
(348,655,o),
(414,582,o),
(414,472,cs),
(414,368,o),
(342,294,o),
(246,294,cs)
);
}
);
width = 517;
}
);
note = nine;
unicode = 57;
},
{
glyphname = A;
kernLeft = A;
kernRight = A;
lastChange = "2023-04-04 19:46:39 +0000";
layers = (
{
hints = (
{
horizontal = 1;
place = (0, 21);
target = up;
type = BottomGhost;
},
{
horizontal = 1;
place = (229, 44);
place = (229, 44);
type = Stem;
},
{
horizontal = 1;
place = (715, -20);
target = down;
type = TopGhost;
},
{
place = (6, 612);
place = (6, 612);
type = Stem;
},
{
horizontal = 1;
place = (663, 52);
place = (663, 52);
type = Stem;
}
);
layerId = m01;
shapes = (
{
closed = 1;
nodes = (
(6,0,l),
(59,0,l),
(147,229,l),
(476,229,l),
(564,0,l),
(618,0,l),
(341,715,l),
(282,715,l)
);
},
{
closed = 1;
nodes = (
(459,273,l),
(164,273,l),
(311,663,l)
);
}
);
width = 624;
}
);
note = A;
unicode = 65;
},
{
glyphname = B;
lastChange = "2023-04-04 19:46:44 +0000";
layers = (
{
hints = (
{
horizontal = 1;
place = (0, 48);
place = (0, 48);
type = Stem;
},
{
horizontal = 1;
place = (349, 46);
place = (349, 46);
type = Stem;
},
{
horizontal = 1;
place = (668, 47);
place = (668, 47);
type = Stem;
},
{
place = (62, 52);
place = (62, 52);
type = Stem;
},
{
place = (496, 53);
place = (496, 53);
type = Stem;
},
{
place = (527, 53);
place = (527, 53);
type = Stem;
}
);
layerId = m01;
shapes = (
{
closed = 1;
nodes = (
(62,0,l),
(366,0,ls),
(490,0,o),
(580,62,o),
(580,198,cs),
(580,292,o),
(528,351,o),
(444,378,c),
(518,407,o),
(549,456,o),
(549,537,cs),
(549,651,o),
(469,715,o),
(355,715,cs),
(62,715,l)
);
},
{
closed = 1;
nodes = (
(356,668,ls),
(441,668,o),
(496,621,o),
(496,533,cs),
(496,452,o),
(448,395,o),
(360,395,cs),
(114,395,l),
(114,668,l)
);
},
{
closed = 1;
nodes = (
(366,349,ls),
(464,349,o),
(527,293,o),
(527,200,cs),
(527,93,o),
(457,48,o),
(362,48,cs),
(114,48,l),
(114,349,l)
);
}
);
width = 609;
}
);
note = B;
unicode = 66;
},
{
glyphname = C;
kernLeft = C;
kernRight = C;
lastChange = "2023-04-04 02:16:56 +0000";
layers = (
{
hints = (
{
horizontal = 1;
place = (-13, 46);
place = (-13, 46);
type = Stem;
},
{
horizontal = 1;
place = (684, 45);
place = (684, 45);
type = Stem;
},
{
place = (34, 54);
place = (34, 54);
type = Stem;
},
{
place = (581, 49);
place = (581, 49);
type = Stem;
}
);
layerId = m01;
shapes = (
{
closed = 1;
nodes = (
(588,653,o),
(490,729,o),
(349,729,cs),
(154,729,o),
(34,576,o),
(34,356,cs),
(34,136,o),
(151,-13,o),
(346,-13,cs),
(495,-13,o),
(614,75,o),
(630,259,c),
(581,259,l),
(568,132,o),
(487,33,o),
(346,33,cs),
(172,33,o),
(88,175,o),
(88,356,cs),
(88,537,o),
(173,684,o),
(349,684,cs),
(468,684,o),
(544,616,o),
(564,519,c),
(616,519,l)
);
}
);
width = 656;
}
);
note = C;
unicode = 67;
},
{
glyphname = D;
kernRight = Eth;
lastChange = "2023-04-04 19:46:48 +0000";
layers = (
{
hints = (
{
horizontal = 1;
place = (0, 46);
place = (0, 46);
type = Stem;
},
{
horizontal = 1;
place = (668, 47);
place = (668, 47);
type = Stem;
},
{
place = (62, 52);
place = (62, 52);
type = Stem;
},
{
place = (556, 54);
place = (556, 54);
type = Stem;
}
);
layerId = m01;
shapes = (
{
closed = 1;
nodes = (
(62,0,l),
(305,0,ls),
(513,0,o),
(610,145,o),
(610,355,cs),
(610,565,o),
(520,715,o),
(312,715,cs),
(62,715,l)
);
},
{
closed = 1;
nodes = (
(310,668,ls),
(483,668,o),
(556,544,o),
(556,355,cs),
(556,166,o),
(476,46,o),
(303,46,cs),
(114,46,l),
(114,668,l)
);
}
);
width = 644;
}
);
note = D;
unicode = 68;
},
{
glyphname = E;
kernRight = E;
layers = (
{
hints = (
{
horizontal = 1;
place = (0, 48);
place = (0, 48);
type = Stem;
},
{
horizontal = 1;
place = (346, 45);
place = (346, 45);
type = Stem;
},
{
horizontal = 1;
place = (669, 46);
place = (669, 46);
type = Stem;
},
{
place = (62, 52);
place = (62, 52);
type = Stem;
}
);
layerId = m01;
shapes = (
{
closed = 1;
nodes = (
(62,0,l),
(546,0,l),
(546,48,l),
(114,48,l),
(114,346,l),
(502,346,l),
(502,391,l),
(114,391,l),
(114,669,l),
(536,669,l),
(536,715,l),
(62,715,l)
);
}
);
width = 582;
}
);
note = E;
unicode = 69;
},
{
glyphname = F;
kernRight = F;
layers = (
{
hints = (
{
horizontal = 1;
place = (0, 21);
target = up;
type = BottomGhost;
},
{
horizontal = 1;
place = (349, 45);
place = (349, 45);
type = Stem;
},
{
horizontal = 1;
place = (669, 46);
place = (669, 46);
type = Stem;
},
{
place = (62, 52);
place = (62, 52);
type = Stem;
}
);
layerId = m01;
shapes = (
{
closed = 1;
nodes = (
(62,0,l),
(114,0,l),
(114,349,l),
(461,349,l),
(461,394,l),
(114,394,l),
(114,669,l),
(516,669,l),
(516,715,l),
(62,715,l)
);
}
);
width = 542;
}
);
note = F;
unicode = 70;
},
{
glyphname = G;
kernLeft = C;
kernRight = G;
lastChange = "2023-04-04 02:26:59 +0000";
layers = (
{
hints = (
{
horizontal = 1;
place = (0, 21);
target = up;
type = BottomGhost;
},
{
horizontal = 1;
place = (314, 46);
place = (314, 46);
type = Stem;
},
{
horizontal = 1;
place = (684, 45);
place = (684, 45);
type = Stem;
},
{
place = (34, 54);
place = (34, 54);
type = Stem;
},
{
place = (612, 43);
place = (612, 43);
type = Stem;
},
{
horizontal = 1;
place = (-13, 46);
place = (-13, 46);
type = Stem;
}
);
layerId = m01;
shapes = (
{
closed = 1;
nodes = (
(615,661,o),
(502,729,o),
(368,729,cs),
(155,729,o),
(34,570,o),
(34,358,cs),
(34,146,o),
(142,-13,o),
(356,-13,cs),
(513,-13,o),
(579,79,o),
(609,128,c),
(615,0,l),
(655,0,l),
(655,360,l),
(365,360,l),
(365,314,l),
(605,314,l),
(605,283,ls),
(605,156,o),
(533,33,o),
(356,33,cs),
(169,33,o),
(88,181,o),
(88,358,cs),
(88,535,o),
(176,684,o),
(368,684,cs),
(475,684,o),
(567,629,o),
(591,513,c),
(643,513,l)
);
}
);
width = 709;
}
);
note = G;
unicode = 71;
},
{
glyphname = H;
layers = (
{
hints = (
{
horizontal = 1;
place = (0, 21);
target = up;
type = BottomGhost;
},
{
horizontal = 1;
place = (358, 44);
place = (358, 44);
type = Stem;
},
{
horizontal = 1;
place = (715, -20);
target = down;
type = TopGhost;
},
{
place = (62, 52);
place = (62, 52);
type = Stem;
},
{
place = (534, 52);
place = (534, 52);
type = Stem;
}
);
layerId = m01;
shapes = (
{
closed = 1;
nodes = (
(62,0,l),
(114,0,l),
(114,358,l),
(534,358,l),
(534,0,l),
(586,0,l),
(586,715,l),
(534,715,l),
(534,402,l),
(114,402,l),
(114,715,l),
(62,715,l)
);
}
);
width = 648;
}
);
note = H;
unicode = 72;
},
{
glyphname = I;
layers = (
{
hints = (
{
horizontal = 1;
place = (0, 21);
target = up;
type = BottomGhost;
},
{
horizontal = 1;
place = (715, -20);
target = down;
type = TopGhost;
},
{
place = (66, 52);
place = (66, 52);
type = Stem;
}
);
layerId = m01;
shapes = (
{
closed = 1;
nodes = (
(66,0,l),
(118,0,l),
(118,715,l),
(66,715,l)
);
}
);
width = 184;
}
);
note = I;
unicode = 73;
},
{
glyphname = J;
kernLeft = J;
kernRight = J;
lastChange = "2023-04-04 02:31:31 +0000";
layers = (
{
hints = (
{
horizontal = 1;
place = (-13, 47);
place = (-13, 47);
type = Stem;
},
{
horizontal = 1;
place = (715, -20);
target = down;
type = TopGhost;
},
{
place = (22, 51);
place = (22, 51);
type = Stem;
},
{
place = (349, 52);
place = (349, 52);
type = Stem;
}
);
layerId = m01;
shapes = (
{
closed = 1;
nodes = (
(349,168,ls),
(349,76,o),
(300,34,o),
(220,34,cs),
(124,34,o),
(73,76,o),
(73,186,cs),
(73,222,l),
(22,222,l),
(22,184,ls),
(22,50,o),
(95,-13,o),
(219,-13,cs),
(343,-13,o),
(401,65,o),
(401,164,cs),
(401,715,l),
(349,715,l)
);
}
);
width = 460;
}
);
note = J;
unicode = 74;
},
{
glyphname = K;
kernRight = K;
layers = (
{
hints = (
{
horizontal = 1;
place = (0, 21);
target = up;
type = BottomGhost;
},
{
horizontal = 1;
place = (716, -20);
target = down;
type = TopGhost;
},
{
place = (62, 52);
place = (62, 52);
type = Stem;
},
{
horizontal = 1;
place = (715, -20);
target = down;
type = TopGhost;
}
);
layerId = m01;
shapes = (
{
closed = 1;
nodes = (
(62,0,l),
(114,0,l),
(114,252,l),
(250,385,l),
(543,0,l),
(606,0,l),
(287,421,l),
(592,716,l),
(523,716,l),
(114,316,l),
(114,715,l),
(62,715,l)
);
}
);
width = 613;
}
);
note = K;
unicode = 75;
},
{
glyphname = L;
kernRight = L;
layers = (
{
hints = (
{
horizontal = 1;
place = (0, 48);
place = (0, 48);
type = Stem;
},
{
horizontal = 1;
place = (715, -20);
target = down;
type = TopGhost;
},
{
place = (62, 52);
place = (62, 52);
type = Stem;
}
);
layerId = m01;
shapes = (
{
closed = 1;
nodes = (
(62,0,l),
(499,0,l),
(499,48,l),
(114,48,l),
(114,715,l),
(62,715,l)
);
}
);
width = 524;
}
);
note = L;
unicode = 76;
},
{
glyphname = M;
lastChange = "2023-04-04 02:44:30 +0000";
layers = (
{
hints = (
{
horizontal = 1;
place = (0, 21);
target = up;
type = BottomGhost;
},
{
horizontal = 1;
place = (646, 69);
place = (646, 69);
type = Stem;
},
{
place = (62, 50);
place = (62, 50);
type = Stem;
},
{
place = (672, 51);
place = (672, 51);
type = Stem;
},
{
horizontal = 1;
place = (0, 71);
place = (0, 71);
type = Stem;
}
);
layerId = m01;
shapes = (
{
closed = 1;
nodes = (
(62,0,l),
(112,0,l),
(112,646,l),
(114,646,l),
(368,0,l),
(420,0,l),
(670,646,l),
(672,646,l),
(672,0,l),
(723,0,l),
(723,715,l),
(645,715,l),
(396,71,l),
(394,71,l),
(137,715,l),
(62,715,l)
);
}
);
width = 785;
}
);
note = M;
unicode = 77;
},
{
glyphname = N;
lastChange = "2023-04-04 02:47:20 +0000";
layers = (
{
hints = (
{
horizontal = 1;
place = (0, 21);
target = up;
type = BottomGhost;
},
{
horizontal = 1;
place = (715, -20);
target = down;
type = TopGhost;
},
{
place = (62, 50);
place = (62, 50);
type = Stem;
},
{
place = (537, 50);
place = (537, 50);
type = Stem;
},
{
horizontal = 1;
place = (637, 78);
place = (637, 78);
type = Stem;
},
{
horizontal = 1;
place = (0, 75);
place = (0, 75);
type = Stem;
}
);
layerId = m01;
shapes = (
{
closed = 1;
nodes = (
(62,0,l),
(112,0,l),
(112,637,l),
(114,637,l),
(532,0,l),
(587,0,l),
(587,715,l),
(537,715,l),
(537,75,l),
(535,75,l),
(120,715,l),
(62,715,l)
);
}
);
width = 649;
}
);
note = N;
unicode = 78;
},
{
glyphname = O;
kernLeft = C;
kernRight = O;
lastChange = "2023-04-04 19:46:53 +0000";
layers = (
{
hints = (
{
horizontal = 1;
place = (-13, 47);
place = (-13, 47);
type = Stem;
},
{
horizontal = 1;
place = (682, 47);
place = (682, 47);
type = Stem;
},
{
place = (34, 54);
place = (34, 54);
type = Stem;
},
{
place = (622, 54);
place = (622, 54);
type = Stem;
}
);
layerId = m01;
shapes = (
{
closed = 1;
nodes = (
(160,729,o),
(34,570,o),
(34,358,cs),
(34,146,o),
(160,-13,o),
(354,-13,cs),
(548,-13,o),
(676,146,o),
(676,358,cs),
(676,570,o),
(548,729,o),
(354,729,cs)
);
},
{
closed = 1;
nodes = (
(528,682,o),
(622,535,o),
(622,358,cs),
(622,181,o),
(528,34,o),
(354,34,cs),
(180,34,o),
(88,181,o),
(88,358,cs),
(88,535,o),
(180,682,o),
(354,682,cs)
);
}
);
width = 710;
}
);
note = O;
unicode = 79;
},
{
glyphname = P;
kernRight = P;
lastChange = "2023-04-04 19:46:55 +0000";
layers = (
{
hints = (
{
horizontal = 1;
place = (0, 21);
target = up;
type = BottomGhost;
},
{
horizontal = 1;
place = (319, 46);
place = (319, 46);
type = Stem;
},
{
horizontal = 1;
place = (668, 47);
place = (668, 47);
type = Stem;
},
{
place = (62, 52);
place = (62, 52);
type = Stem;
},
{
place = (496, 53);
place = (496, 53);
type = Stem;
}
);
layerId = m01;
shapes = (
{
closed = 1;
nodes = (
(62,0,l),
(114,0,l),
(114,319,l),
(325,319,ls),
(472,319,o),
(549,385,o),
(549,519,cs),
(549,649,o),
(464,715,o),
(332,715,cs),
(62,715,l)
);
},
{
closed = 1;
nodes = (
(328,668,ls),
(439,668,o),
(496,613,o),
(496,518,cs),
(496,423,o),
(448,365,o),
(321,365,cs),
(114,365,l),
(114,668,l)
);
}
);
width = 575;
}
);
note = P;
unicode = 80;
},
{
glyphname = Q;
kernLeft = C;
kernRight = Q;
lastChange = "2023-04-04 19:46:57 +0000";
layers = (
{
hints = (
{
horizontal = 1;
place = (-3, 21);
target = up;
type = BottomGhost;
},
{
horizontal = 1;
place = (682, 47);
place = (682, 47);
type = Stem;
},
{
place = (34, 54);
place = (34, 54);
type = Stem;
},
{
place = (622, 54);
place = (622, 54);
type = Stem;
},
{
horizontal = 1;
place = (-13, 47);
place = (-13, 47);
type = Stem;
}
);
layerId = m01;
shapes = (
{
closed = 1;
nodes = (
(160,729,o),
(34,570,o),
(34,358,cs),
(34,146,o),
(160,-13,o),
(354,-13,cs),
(422,-13,o),
(482,6,o),
(531,41,c),
(630,-41,l),
(660,-3,l),
(568,72,l),
(636,139,o),
(676,240,o),
(676,358,cs),
(676,570,o),
(548,729,o),
(354,729,cs)
);
},
{
closed = 1;
nodes = (
(528,682,o),
(622,535,o),
(622,358,cs),
(622,254,o),
(591,162,o),
(531,103,c),
(441,177,l),
(411,140,l),
(492,72,l),
(454,48,o),
(408,34,o),
(354,34,cs),
(180,34,o),
(88,181,o),
(88,358,cs),
(88,535,o),
(180,682,o),
(354,682,cs)
);
}
);
width = 710;
}
);
note = Q;
unicode = 81;
},
{
glyphname = R;
kernRight = R;
lastChange = "2023-04-04 19:47:00 +0000";
layers = (
{
hints = (
{
horizontal = 1;
place = (0, 21);
target = up;
type = BottomGhost;
},
{
horizontal = 1;
place = (331, 46);
place = (331, 46);
type = Stem;
},
{
horizontal = 1;
place = (669, 46);
place = (669, 46);
type = Stem;
},
{
place = (62, 52);
place = (62, 52);
type = Stem;
},
{
place = (516, 53);
place = (516, 53);
type = Stem;
}
);
layerId = m01;
shapes = (
{
closed = 1;
nodes = (
(62,0,l),
(114,0,l),
(114,331,l),
(344,331,ls),
(454,331,o),
(497,296,o),
(502,160,cs),
(503,126,o),
(505,99,o),
(506,78,cs),
(511,22,o),
(516,7,o),
(528,0,c),
(584,0,l),
(584,4,l),
(575,10,o),
(565,27,o),
(559,79,cs),
(557,99,o),
(555,125,o),
(554,157,cs),
(550,272,o),
(526,328,o),
(452,352,c),
(452,355,l),
(531,380,o),
(569,435,o),
(569,524,cs),
(569,645,o),
(502,715,o),
(371,715,cs),
(62,715,l)
);
},
{
closed = 1;
nodes = (
(365,669,ls),
(475,669,o),
(516,613,o),
(516,522,cs),
(516,429,o),
(460,377,o),
(354,377,cs),
(114,377,l),
(114,669,l)
);
}
);
width = 615;
}
);
note = R;
unicode = 82;
},
{
glyphname = S;
kernLeft = Scaron;
kernRight = Scaron;
lastChange = "2023-04-04 03:06:49 +0000";
layers = (
{
hints = (
{
horizontal = 1;
place = (-13, 46);
place = (-13, 46);
type = Stem;
},
{
horizontal = 1;
place = (683, 46);
place = (683, 46);
type = Stem;
},
{
place = (23, 53);
place = (23, 53);
type = Stem;
},
{
place = (493, 54);
place = (493, 54);
type = Stem;
},
{
place = (49, 53);
place = (49, 53);
type = Stem;
},
{
place = (473, 52);
place = (473, 52);
type = Stem;
}
);
layerId = m01;
shapes = (
{
closed = 1;
nodes = (
(515,647,o),
(431,729,o),
(286,729,cs),
(145,729,o),
(49,652,o),
(49,540,cs),
(49,421,o),
(132,379,o),
(268,354,cs),
(438,322,o),
(493,296,o),
(493,193,cs),
(493,92,o),
(410,33,o),
(301,33,cs),
(168,33,o),
(81,105,o),
(76,226,c),
(23,226,l),
(31,89,o),
(123,-13,o),
(302,-13,cs),
(450,-13,o),
(547,75,o),
(547,197,cs),
(547,340,o),
(439,373,o),
(300,399,cs),
(159,425,o),
(102,453,o),
(102,541,cs),
(102,623,o),
(170,683,o),
(287,683,cs),
(387,683,o),
(463,630,o),
(473,530,c),
(525,530,l)
);
}
);
width = 581;
}
);
note = S;
unicode = 83;
},
{
glyphname = T;
kernLeft = T;
kernRight = T;
layers = (
{
hints = (
{
horizontal = 1;
place = (0, 21);
target = up;
type = BottomGhost;
},
{
horizontal = 1;
place = (668, 47);
place = (668, 47);
type = Stem;
},
{
place = (261, 52);
place = (261, 52);
type = Stem;
}
);
layerId = m01;
shapes = (
{
closed = 1;
nodes = (
(17,668,l),
(261,668,l),
(261,0,l),
(313,0,l),
(313,668,l),
(557,668,l),
(557,715,l),
(17,715,l)
);
}
);
width = 574;
}
);
note = T;
unicode = 84;
},
{
glyphname = U;
kernLeft = U;
kernRight = U;
lastChange = "2023-04-04 03:08:14 +0000";
layers = (
{
hints = (
{
horizontal = 1;
place = (-11, 46);
place = (-11, 46);
type = Stem;
},
{
horizontal = 1;
place = (715, -20);
target = down;
type = TopGhost;
},
{
place = (56, 52);
place = (56, 52);
type = Stem;
},
{
place = (514, 52);
place = (514, 52);
type = Stem;
}
);
layerId = m01;
shapes = (
{
closed = 1;
nodes = (
(56,225,ls),
(56,67,o),
(152,-11,o),
(308,-11,cs),
(463,-11,o),
(566,63,o),
(566,225,cs),
(566,715,l),
(514,715,l),
(514,229,ls),
(514,89,o),
(434,35,o),
(311,35,cs),
(181,35,o),
(108,89,o),
(108,229,cs),
(108,715,l),
(56,715,l)
);
}
);
width = 622;
}
);
note = U;
unicode = 85;
},
{
glyphname = V;
kernLeft = V;
kernRight = V;
lastChange = "2023-04-04 03:08:18 +0000";
layers = (
{
hints = (
{
horizontal = 1;
place = (0, 21);
target = up;
type = BottomGhost;
},
{
horizontal = 1;
place = (715, -20);
target = down;
type = TopGhost;
},
{
place = (6, 582);
place = (6, 582);
type = Stem;
},
{
horizontal = 1;
place = (0, 57);
place = (0, 57);
type = Stem;
}
);
layerId = m01;
shapes = (
{
closed = 1;
nodes = (
(268,0,l),
(323,0,l),
(588,715,l),
(536,715,l),
(296,57,l),
(294,57,l),
(59,715,l),
(6,715,l)
);
}
);
width = 594;
}
);
note = V;
unicode = 86;
},
{
glyphname = W;
kernLeft = W;
kernRight = W;
lastChange = "2023-04-04 03:17:34 +0000";
layers = (
{
hints = (
{
horizontal = 1;
place = (0, 67);
place = (0, 67);
type = Stem;
},
{
horizontal = 1;
place = (715, -20);
target = down;
type = TopGhost;
},
{
place = (11, 835);
place = (11, 835);
type = Stem;
},
{
horizontal = 1;
place = (653, 62);
place = (653, 62);
type = Stem;
}
);
layerId = m01;
shapes = (
{
closed = 1;
nodes = (
(204,0,l),
(262,0,l),
(430,653,l),
(432,653,l),
(600,0,l),
(656,0,l),
(846,715,l),
(796,715,l),
(631,67,l),
(629,67,l),
(458,715,l),
(403,715,l),
(234,67,l),
(232,67,l),
(63,715,l),
(11,715,l)
);
}
);
width = 857;
}
);
note = W;
unicode = 87;
},
{
glyphname = X;
kernLeft = X;
kernRight = X;
lastChange = "2023-04-04 04:43:47 +0000";
layers = (
{
hints = (
{
horizontal = 1;
place = (0, 21);
target = up;
type = BottomGhost;
},
{
horizontal = 1;
place = (715, -20);
target = down;
type = TopGhost;
},
{
place = (11, 551);
place = (11, 551);
type = Stem;
}
);
layerId = m01;
shapes = (
{
closed = 1;
nodes = (
(256,365,l),
(11,0,l),
(69,0,l),
(285,326,l),
(287,326,l),
(503,0,l),
(562,0,l),
(319,364,l),
(549,715,l),
(491,715,l),
(290,403,l),
(288,403,l),
(81,715,l),
(22,715,l)
);
}
);
width = 573;
}
);
note = X;
unicode = 88;
},
{
glyphname = Y;
kernLeft = Yacute;
kernRight = Yacute;
lastChange = "2023-04-04 04:45:31 +0000";
layers = (
{
hints = (
{
horizontal = 1;
place = (0, 21);
target = up;
type = BottomGhost;
},
{
horizontal = 1;
place = (715, -20);
target = down;
type = TopGhost;
},
{
place = (263, 52);
place = (263, 52);
type = Stem;
}
);
layerId = m01;
shapes = (
{
closed = 1;
nodes = (
(263,318,l),
(263,0,l),
(315,0,l),
(315,316,l),
(574,715,l),
(518,715,l),
(291,365,l),
(289,365,l),
(62,715,l),
(5,715,l)
);
}
);
width = 579;
}
);
note = Y;
unicode = 89;
},
{
glyphname = Z;
kernLeft = Zcaron;
kernRight = Zcaron;
lastChange = "2023-04-04 04:53:49 +0000";
layers = (
{
hints = (
{
horizontal = 1;
place = (0, 46);
place = (0, 46);
type = Stem;
},
{
horizontal = 1;
place = (670, 45);
place = (670, 45);
type = Stem;
},
{
place = (24, 60);
place = (24, 60);
type = Stem;
},
{
place = (466, 61);
place = (466, 61);
type = Stem;
}
);
layerId = m01;
shapes = (
{
closed = 1;
nodes = (
(52,670,l),
(466,670,l),
(466,667,l),
(24,51,l),
(24,0,l),
(543,0,l),
(543,46,l),
(84,46,l),
(84,49,l),
(527,667,l),
(527,715,l),
(52,715,l)
);
}
);
width = 573;
}
);
note = Z;
unicode = 90;
},
{
glyphname = a;
kernLeft = a;
kernRight = a;
lastChange = "2023-04-04 19:47:04 +0000";
layers = (
{
hints = (
{
horizontal = 1;
place = (-8, 39);
place = (-8, 39);
type = Stem;
},
{
horizontal = 1;
place = (486, 42);
place = (486, 42);
type = Stem;
},
{
place = (23, 50);
place = (23, 50);
type = Stem;
},
{
place = (377, 49);
place = (377, 49);
type = Stem;
},
{
horizontal = 1;
place = (-13, 41);
place = (-13, 41);
type = Stem;
}
);
layerId = m01;
shapes = (
{
closed = 1;
nodes = (
(91,370,l),
(98,446,o),
(150,486,o),
(247,486,cs),
(331,486,o),
(377,452,o),
(377,374,cs),
(377,308,o),
(349,302,o),
(227,290,cs),
(119,279,o),
(23,254,o),
(23,131,cs),
(23,36,o),
(93,-13,o),
(188,-13,cs),
(294,-13,o),
(346,39,o),
(375,80,c),
(378,80,l),
(378,62,ls),
(378,14,o),
(406,-8,o),
(446,-8,cs),
(466,-8,o),
(478,-4,o),
(486,0,c),
(486,36,l),
(483,36,l),
(474,33,o),
(466,31,o),
(459,31,cs),
(441,31,o),
(426,39,o),
(426,67,cs),
(426,371,ls),
(426,477,o),
(362,528,o),
(247,528,cs),
(118,528,o),
(51,470,o),
(41,370,c)
);
},
{
closed = 1;
nodes = (
(377,184,ls),
(377,106,o),
(310,28,o),
(193,28,cs),
(127,28,o),
(73,56,o),
(73,129,cs),
(73,227,o),
(142,239,o),
(233,249,cs),
(286,255,o),
(341,262,o),
(377,280,c)
);
}
);
width = 492;
}
);
note = a;
unicode = 97;
},
{
glyphname = b;
kernLeft = b;
kernRight = thorn;
lastChange = "2023-04-04 19:47:06 +0000";
layers = (
{
hints = (
{
horizontal = 1;
place = (-13, 41);
place = (-13, 41);
type = Stem;
},
{
horizontal = 1;
place = (486, 42);
place = (486, 42);
type = Stem;
},
{
horizontal = 1;
place = (715, -20);
target = down;
type = TopGhost;
},
{
place = (50, 49);
place = (50, 49);
type = Stem;
},
{
place = (441, 50);
place = (441, 50);
type = Stem;
},
{
horizontal = 1;
place = (0, 21);
target = up;
type = BottomGhost;
}
);
layerId = m01;
shapes = (
{
closed = 1;
nodes = (
(50,0,l),
(99,0,l),
(99,85,l),
(101,85,l),
(140,22,o),
(192,-13,o),
(278,-13,cs),
(411,-13,o),
(491,103,o),
(491,257,cs),
(491,429,o),
(402,528,o),
(282,528,cs),
(195,528,o),
(136,483,o),
(101,418,c),
(99,418,l),
(99,715,l),
(50,715,l)
);
},
{
closed = 1;
nodes = (
(381,486,o),
(441,394,o),
(441,256,cs),
(441,133,o),
(387,28,o),
(276,28,cs),
(159,28,o),
(94,119,o),
(94,256,cs),
(94,387,o),
(160,486,o),
(275,486,cs)
);
}
);
width = 516;
}
);
note = b;
unicode = 98;
},
{
glyphname = c;
kernLeft = c;
kernRight = c;
lastChange = "2023-04-04 05:11:09 +0000";
layers = (
{
hints = (
{
horizontal = 1;
place = (-13, 43);
place = (-13, 43);
type = Stem;
},
{
horizontal = 1;
place = (486, 42);
place = (486, 42);
type = Stem;
},
{
place = (25, 50);
place = (25, 50);
type = Stem;
}
);
layerId = m01;
shapes = (
{
closed = 1;
nodes = (
(434,472,o),
(359,528,o),
(251,528,cs),
(103,528,o),
(25,414,o),
(25,258,cs),
(25,102,o),
(101,-13,o),
(250,-13,cs),
(369,-13,o),
(443,63,o),
(456,175,c),
(410,175,l),
(399,90,o),
(340,30,o),
(250,30,cs),
(127,30,o),
(75,134,o),
(75,258,cs),
(75,382,o),
(126,486,o),
(251,486,cs),
(332,486,o),
(385,450,o),
(402,368,c),
(450,368,l)
);
}
);
width = 472;
}
);
note = c;
unicode = 99;
},
{
glyphname = d;
kernLeft = d;
lastChange = "2023-04-04 20:25:18 +0000";
layers = (
{
hints = (
{
horizontal = 1;
place = (-13, 41);
place = (-13, 41);
type = Stem;
},
{
horizontal = 1;
place = (486, 42);
place = (486, 42);
type = Stem;
},
{
horizontal = 1;
place = (715, -20);
target = down;
type = TopGhost;
},
{
place = (25, 50);
place = (25, 50);
type = Stem;
},
{
place = (419, 49);
place = (419, 49);
type = Stem;
},
{
horizontal = 1;
place = (0, 21);
target = up;
type = BottomGhost;
}
);
layerId = m01;
shapes = (
{
closed = 1;
nodes = (
(419,423,l),
(417,423,l),
(384,489,o),
(325,528,o),
(242,528,cs),
(122,528,o),
(25,429,o),
(25,257,cs),
(25,103,o),
(105,-13,o),
(243,-13,cs),
(324,-13,o),
(379,22,o),
(417,86,c),
(419,86,l),
(419,0,l),
(468,0,l),
(468,715,l),
(419,715,l)
);
},
{
closed = 1;
nodes = (
(361,486,o),
(424,387,o),
(424,256,cs),
(424,119,o),
(357,28,o),
(245,28,cs),
(129,28,o),
(75,132,o),
(75,256,cs),
(75,394,o),
(140,486,o),
(246,486,cs)
);
}
);
width = 518;
}
);
note = d;
unicode = 100;
},
{
glyphname = e;
kernLeft = c;
kernRight = e;
lastChange = "2023-04-04 19:47:10 +0000";
layers = (
{
hints = (
{
horizontal = 1;
place = (-13, 43);
place = (-13, 43);
type = Stem;
},
{
horizontal = 1;
place = (253, 40);
place = (253, 40);
type = Stem;
},
{
horizontal = 1;
place = (486, 42);
place = (486, 42);
type = Stem;
},
{
place = (25, 50);
place = (25, 50);
type = Stem;
},
{
place = (416, 50);
place = (416, 50);
type = Stem;
}
);
layerId = m01;
shapes = (
{
closed = 1;
nodes = (
(468,407,o),
(405,528,o),
(255,528,cs),
(114,528,o),
(25,417,o),
(25,258,cs),
(25,99,o),
(107,-13,o),
(259,-13,cs),
(374,-13,o),
(442,58,o),
(463,154,c),
(416,154,l),
(395,84,o),
(352,30,o),
(259,30,cs),
(132,30,o),
(76,129,o),
(75,253,c),
(466,253,l)
);
},
{
closed = 1;
nodes = (
(76,293,l),
(86,402,o),
(143,486,o),
(255,486,cs),
(369,486,o),
(413,395,o),
(416,293,c)
);
}
);
width = 491;
}
);
note = e;
unicode = 101;
},
{
glyphname = f;
kernLeft = f;
kernRight = f;
lastChange = "2023-04-04 05:30:57 +0000";
layers = (
{
hints = (
{
horizontal = 1;
place = (0, 21);
target = up;
type = BottomGhost;
},
{
horizontal = 1;
place = (476, 41);
place = (476, 41);
type = Stem;
},
{
horizontal = 1;
place = (676, 43);
place = (676, 43);
type = Stem;
},
{
place = (89, 49);
place = (89, 49);
type = Stem;
}
);
layerId = m01;
shapes = (
{
closed = 1;
nodes = (
(12,476,l),
(89,476,l),
(89,0,l),
(138,0,l),
(138,476,l),
(234,476,l),
(234,517,l),
(138,517,l),
(138,614,ls),
(138,652,o),
(152,676,o),
(203,676,cs),
(212,676,o),
(222,676,o),
(231,676,c),
(231,719,l),
(221,719,o),
(210,719,o),
(200,719,cs),
(126,719,o),
(89,684,o),
(89,615,cs),
(89,517,l),
(12,517,l)
);
}
);
width = 252;
}
);
note = f;
unicode = 102;
},
{
glyphname = g;
kernLeft = g;
kernRight = g;
lastChange = "2023-04-04 19:47:13 +0000";
layers = (
{
hints = (
{
horizontal = 1;
place = (-187, 42);
place = (-187, 42);
type = Stem;
},
{
horizontal = 1;
place = (5, 41);
place = (5, 41);
type = Stem;
},
{
horizontal = 1;
place = (517, -20);
target = down;
type = TopGhost;
},
{
place = (51, 49);
place = (51, 49);
type = Stem;
},
{
place = (418, 49);
place = (418, 49);
type = Stem;
},
{
horizontal = 1;
place = (486, 42);
place = (486, 42);
type = Stem;
},
{
place = (25, 50);
place = (25, 50);
type = Stem;
}
);
layerId = m01;
shapes = (
{
closed = 1;
nodes = (
(418,428,l),
(415,428,l),
(381,488,o),
(330,528,o),
(247,528,cs),
(127,528,o),
(25,436,o),
(25,264,cs),
(25,110,o),
(106,5,o),
(244,5,cs),
(325,5,o),
(377,38,o),
(415,102,c),
(418,102,l),
(418,14,ls),
(418,-78,o),
(368,-145,o),
(248,-145,cs),
(175,-145,o),
(114,-119,o),
(100,-57,c),
(51,-57,l),
(59,-127,o),
(127,-187,o),
(250,-187,cs),
(383,-187,o),
(467,-113,o),
(467,15,cs),
(467,517,l),
(418,517,l)
);
},
{
closed = 1;
nodes = (
(364,486,o),
(422,391,o),
(422,263,cs),
(422,129,o),
(358,46,o),
(246,46,cs),
(129,46,o),
(75,141,o),
(75,263,cs),
(75,398,o),
(143,486,o),
(249,486,cs)
);
}
);
width = 517;
}
);
note = g;
unicode = 103;
},
{
glyphname = h;
kernLeft = b;
kernRight = h;
lastChange = "2023-04-04 05:35:29 +0000";
layers = (
{
hints = (
{
horizontal = 1;
place = (0, 21);
target = up;
type = BottomGhost;
},
{
horizontal = 1;
place = (485, 42);
place = (485, 42);
type = Stem;
},
{
horizontal = 1;
place = (715, -20);
target = down;
type = TopGhost;
},
{
place = (55, 49);
place = (55, 49);
type = Stem;
},
{
place = (395, 49);
place = (395, 49);
type = Stem;
}
);
layerId = m01;
shapes = (
{
closed = 1;
nodes = (
(55,0,l),
(104,0,l),
(104,334,ls),
(104,420,o),
(185,485,o),
(277,485,cs),
(349,485,o),
(395,449,o),
(395,364,cs),
(395,0,l),
(444,0,l),
(444,369,ls),
(444,472,o),
(374,527,o),
(286,527,cs),
(198,527,o),
(140,485,o),
(106,430,c),
(104,430,l),
(104,715,l),
(55,715,l)
);
}
);
width = 490;
}
);
note = h;
unicode = 104;
},
{
glyphname = i;
kernLeft = b;
layers = (
{
hints = (
{
horizontal = 1;
place = (0, 21);
target = up;
type = BottomGhost;
},
{
horizontal = 1;
place = (517, -20);
target = down;
type = TopGhost;
},
{
horizontal = 1;
place = (635, 80);
place = (635, 80);
type = Stem;
},
{
place = (53, 49);
place = (53, 49);
type = Stem;
}
);
layerId = m01;
shapes = (
{
closed = 1;
nodes = (
(53,0,l),
(102,0,l),
(102,517,l),
(53,517,l)
);
},
{
closed = 1;
nodes = (
(53,635,l),
(102,635,l),
(102,715,l),
(53,715,l)
);
}
);
width = 155;
}
);
note = i;
unicode = 105;
},
{
glyphname = j;
kernLeft = j;
kernRight = j;
lastChange = "2023-04-04 05:42:38 +0000";
layers = (
{
hints = (
{
horizontal = 1;
place = (-166, 42);
place = (-166, 42);
type = Stem;
},
{
horizontal = 1;
place = (517, -20);
target = down;
type = TopGhost;
},
{
horizontal = 1;
place = (635, 80);
place = (635, 80);
type = Stem;
},
{
place = (53, 49);
place = (53, 49);
type = Stem;
}
);
layerId = m01;
shapes = (
{
closed = 1;
nodes = (
(53,-59,ls),
(53,-105,o),
(35,-124,o),
(-5,-124,cs),
(-8,-124,o),
(-12,-124,o),
(-15,-124,c),
(-15,-166,l),
(-11,-166,o),
(-6,-166,o),
(-2,-166,cs),
(67,-166,o),
(102,-136,o),
(102,-60,cs),
(102,517,l),
(53,517,l)
);
},
{
closed = 1;
nodes = (
(53,635,l),
(102,635,l),
(102,715,l),
(53,715,l)
);
}
);
width = 155;
}
);
note = j;
unicode = 106;
},
{
glyphname = k;
kernLeft = b;
kernRight = k;
lastChange = "2023-04-04 05:43:58 +0000";
layers = (
{
hints = (
{
horizontal = 1;
place = (0, 21);
target = up;
type = BottomGhost;
},
{
horizontal = 1;
place = (517, -20);
target = down;
type = TopGhost;
},
{
horizontal = 1;
place = (715, -20);
target = down;
type = TopGhost;
},
{
place = (50, 49);
place = (50, 49);
type = Stem;
}
);
layerId = m01;
shapes = (
{
closed = 1;
nodes = (
(50,0,l),
(99,0,l),
(99,193,l),
(207,297,l),
(407,0,l),
(463,0,l),
(242,330,l),
(439,517,l),
(377,517,l),
(99,250,l),
(99,715,l),
(50,715,l)
);
}
);
width = 467;
}
);
note = k;
unicode = 107;
},
{
glyphname = l;
kernLeft = b;
layers = (
{
hints = (
{
horizontal = 1;
place = (0, 21);
target = up;
type = BottomGhost;
},
{
horizontal = 1;
place = (715, -20);
target = down;
type = TopGhost;
},
{
place = (53, 49);
place = (53, 49);
type = Stem;
}
);
layerId = m01;
shapes = (
{
closed = 1;
nodes = (
(53,0,l),
(102,0,l),
(102,715,l),
(53,715,l)
);
}
);
width = 155;
}
);
note = l;
unicode = 108;
},
{
glyphname = m;
kernLeft = m;
kernRight = h;
layers = (
{
hints = (
{
horizontal = 1;
place = (0, 21);
target = up;
type = BottomGhost;
},
{
horizontal = 1;
place = (485, 42);
place = (485, 42);
type = Stem;
},
{
place = (50, 49);
place = (50, 49);
type = Stem;
},
{
place = (366, 49);
place = (366, 49);
type = Stem;
},
{
place = (682, 49);
place = (682, 49);
type = Stem;
},
{
horizontal = 1;
place = (517, -20);
target = down;
type = TopGhost;
}
);
layerId = m01;
shapes = (
{
closed = 1;
nodes = (
(50,0,l),
(99,0,l),
(99,334,ls),
(99,420,o),
(171,485,o),
(252,485,cs),
(317,485,o),
(366,449,o),
(366,364,cs),
(366,0,l),
(415,0,l),
(415,334,ls),
(415,433,o),
(483,485,o),
(564,485,cs),
(635,485,o),
(682,449,o),
(682,364,cs),
(682,0,l),
(731,0,l),
(731,369,ls),
(731,472,o),
(661,527,o),
(575,527,cs),
(495,527,o),
(438,491,o),
(404,432,c),
(401,432,l),
(381,495,o),
(325,527,o),
(261,527,cs),
(181,527,o),
(135,489,o),
(101,436,c),
(99,436,l),
(99,517,l),
(50,517,l)
);
}
);
width = 777;
}
);
note = m;
unicode = 109;
},
{
glyphname = n;
kernLeft = m;
kernRight = h;
lastChange = "2023-04-04 05:50:02 +0000";
layers = (
{
hints = (
{
horizontal = 1;
place = (0, 21);
target = up;
type = BottomGhost;
},
{
horizontal = 1;
place = (517, -20);
target = down;
type = TopGhost;
},
{
place = (50, 49);
place = (50, 49);
type = Stem;
},
{
place = (390, 49);
place = (390, 49);
type = Stem;
},
{
horizontal = 1;
place = (485, 42);
place = (485, 42);
type = Stem;
}
);
layerId = m01;
shapes = (
{
closed = 1;
nodes = (
(50,0,l),
(99,0,l),
(99,334,ls),
(99,420,o),
(180,485,o),
(272,485,cs),
(344,485,o),
(390,449,o),
(390,364,cs),
(390,0,l),
(439,0,l),
(439,369,ls),
(439,472,o),
(369,527,o),
(281,527,cs),
(193,527,o),
(135,485,o),
(101,430,c),
(99,430,l),
(99,517,l),
(50,517,l)
);
}
);
width = 485;
}
);
note = n;
unicode = 110;
},
{
glyphname = o;
kernLeft = c;
kernRight = o;
lastChange = "2023-04-04 19:47:17 +0000";
layers = (
{
hints = (
{
horizontal = 1;
place = (-13, 42);
place = (-13, 42);
type = Stem;
},
{
horizontal = 1;
place = (487, 41);
place = (487, 41);
type = Stem;
},
{
place = (25, 50);
place = (25, 50);
type = Stem;
},
{
place = (439, 50);
place = (439, 50);
type = Stem;
}
);
layerId = m01;
shapes = (
{
closed = 1;
nodes = (
(112,528,o),
(25,414,o),
(25,258,cs),
(25,102,o),
(112,-13,o),
(257,-13,cs),
(403,-13,o),
(489,102,o),
(489,258,cs),
(489,414,o),
(403,528,o),
(257,528,cs)
);
},
{
closed = 1;
nodes = (
(376,487,o),
(439,384,o),
(439,258,cs),
(439,132,o),
(376,29,o),
(257,29,cs),
(138,29,o),
(75,132,o),
(75,258,cs),
(75,384,o),
(138,487,o),
(257,487,cs)
);
}
);
width = 514;
}
);
note = o;
unicode = 111;
},
{
glyphname = p;
kernLeft = p;
kernRight = thorn;
lastChange = "2023-04-04 19:47:19 +0000";
layers = (
{
hints = (
{
horizontal = 1;
place = (-166, 21);
target = up;
type = BottomGhost;
},
{
horizontal = 1;
place = (-11, 41);
place = (-11, 41);
type = Stem;
},
{
horizontal = 1;
place = (486, 42);
place = (486, 42);
type = Stem;
},
{
place = (50, 49);
place = (50, 49);
type = Stem;
},
{
place = (441, 50);
place = (441, 50);
type = Stem;
},
{
horizontal = 1;
place = (517, -20);
target = down;
type = TopGhost;
}
);
layerId = m01;
shapes = (
{
closed = 1;
nodes = (
(50,-166,l),
(99,-166,l),
(99,85,l),
(101,85,l),
(138,26,o),
(192,-11,o),
(278,-11,cs),
(411,-11,o),
(491,105,o),
(491,259,cs),
(491,431,o),
(402,528,o),
(282,528,cs),
(195,528,o),
(136,484,o),
(101,418,c),
(99,418,l),
(99,517,l),
(50,517,l)
);
},
{
closed = 1;
nodes = (
(381,486,o),
(441,396,o),
(441,258,cs),
(441,135,o),
(387,30,o),
(276,30,cs),
(159,30,o),
(94,119,o),
(94,256,cs),
(94,387,o),
(160,486,o),
(275,486,cs)
);
}
);
width = 516;
}
);
note = p;
unicode = 112;
},
{
glyphname = q;
kernLeft = d;
kernRight = q;
lastChange = "2023-04-04 19:47:22 +0000";
layers = (
{
hints = (
{
horizontal = 1;
place = (-166, 21);
target = up;
type = BottomGhost;
},
{
horizontal = 1;
place = (-11, 41);
place = (-11, 41);
type = Stem;
},
{
horizontal = 1;
place = (486, 42);
place = (486, 42);
type = Stem;
},
{
place = (25, 50);
place = (25, 50);
type = Stem;
},
{
place = (419, 49);
place = (419, 49);
type = Stem;
},
{
horizontal = 1;
place = (517, -20);
target = down;
type = TopGhost;
}
);
layerId = m01;
shapes = (
{
closed = 1;
nodes = (
(419,517,l),
(419,427,l),
(417,427,l),
(383,488,o),
(328,528,o),
(245,528,cs),
(125,528,o),
(25,429,o),
(25,257,cs),
(25,103,o),
(104,-11,o),
(242,-11,cs),
(323,-11,o),
(379,23,o),
(417,86,c),
(419,86,l),
(419,-166,l),
(468,-166,l),
(468,517,l)
);
},
{
closed = 1;
nodes = (
(362,486,o),
(424,387,o),
(424,256,cs),
(424,119,o),
(356,30,o),
(244,30,cs),
(127,30,o),
(75,132,o),
(75,256,cs),
(75,394,o),
(141,486,o),
(247,486,cs)
);
}
);
width = 518;
}
);
note = q;
unicode = 113;
},
{
glyphname = r;
kernLeft = m;
kernRight = r;
lastChange = "2023-04-04 06:01:45 +0000";
layers = (
{
hints = (
{
horizontal = 1;
place = (0, 21);
target = up;
type = BottomGhost;
},
{
horizontal = 1;
place = (517, -20);
target = down;
type = TopGhost;
},
{
place = (50, 49);
place = (50, 49);
type = Stem;
},
{
horizontal = 1;
place = (471, 49);
place = (471, 49);
type = Stem;
}
);
layerId = m01;
shapes = (
{
closed = 1;
nodes = (
(50,0,l),
(99,0,l),
(99,299,ls),
(99,375,o),
(141,434,o),
(196,459,cs),
(217,468,o),
(240,472,o),
(269,471,c),
(269,520,l),
(231,520,o),
(205,515,o),
(174,497,cs),
(143,479,o),
(119,451,o),
(101,415,c),
(99,415,l),
(99,517,l),
(50,517,l)
);
}
);
width = 285;
}
);
note = r;
unicode = 114;
},
{
glyphname = s;
kernLeft = scaron;
kernRight = scaron;
lastChange = "2023-04-04 06:04:27 +0000";
layers = (
{
hints = (
{
horizontal = 1;
place = (-13, 42);
place = (-13, 42);
type = Stem;
},
{
horizontal = 1;
place = (485, 43);
place = (485, 43);
type = Stem;
},
{
place = (34, 49);
place = (34, 49);
type = Stem;
},
{
place = (360, 49);
place = (360, 49);
type = Stem;
}
);
layerId = m01;
shapes = (
{
closed = 1;
nodes = (
(382,465,o),
(329,528,o),
(210,528,cs),
(112,528,o),
(34,476,o),
(34,390,cs),
(34,298,o),
(113,270,o),
(219,245,cs),
(333,218,o),
(360,196,o),
(360,140,cs),
(360,72,o),
(308,29,o),
(221,29,cs),
(135,29,o),
(74,71,o),
(67,156,c),
(17,156,l),
(22,67,o),
(86,-13,o),
(221,-13,cs),
(342,-13,o),
(409,55,o),
(409,139,cs),
(409,237,o),
(341,265,o),
(237,289,cs),
(131,314,o),
(83,331,o),
(83,391,cs),
(83,445,o),
(126,485,o),
(210,485,cs),
(288,485,o),
(339,447,o),
(346,381,c),
(394,381,l)
);
}
);
width = 433;
}
);
note = s;
unicode = 115;
},
{
glyphname = t;
kernLeft = t;
kernRight = t;
lastChange = "2023-04-04 06:06:30 +0000";
layers = (
{
hints = (
{
horizontal = 1;
place = (-4, 42);
place = (-4, 42);
type = Stem;
},
{
horizontal = 1;
place = (476, 41);
place = (476, 41);
type = Stem;
},
{
place = (94, 49);
place = (94, 49);
type = Stem;
}
);
layerId = m01;
shapes = (
{
closed = 1;
nodes = (
(14,476,l),
(94,476,l),
(94,84,ls),
(94,23,o),
(129,-4,o),
(182,-4,cs),
(203,-4,o),
(218,-1,o),
(234,5,c),
(234,47,l),
(222,42,o),
(205,38,o),
(192,38,cs),
(158,38,o),
(143,50,o),
(143,88,cs),
(143,476,l),
(237,476,l),
(237,517,l),
(143,517,l),
(143,673,l),
(94,673,l),
(94,517,l),
(14,517,l)
);
}
);
width = 266;
}
);
note = t;
unicode = 116;
},
{
glyphname = u;
kernLeft = u;
kernRight = u;
lastChange = "2023-04-04 06:07:20 +0000";
layers = (
{
hints = (
{
horizontal = 1;
place = (0, 21);
target = up;
type = BottomGhost;
},
{
horizontal = 1;
place = (517, -20);
target = down;
type = TopGhost;
},
{
place = (46, 49);
place = (46, 49);
type = Stem;
},
{
place = (380, 49);
place = (380, 49);
type = Stem;
},
{
horizontal = 1;
place = (-12, 42);
place = (-12, 42);
type = Stem;
}
);
layerId = m01;
shapes = (
{
closed = 1;
nodes = (
(46,148,ls),
(46,45,o),
(117,-12,o),
(212,-12,cs),
(299,-12,o),
(344,29,o),
(378,79,c),
(380,79,l),
(380,0,l),
(429,0,l),
(429,517,l),
(380,517,l),
(380,190,ls),
(380,99,o),
(312,30,o),
(221,30,cs),
(144,30,o),
(95,68,o),
(95,153,cs),
(95,517,l),
(46,517,l)
);
}
);
width = 479;
}
);
note = u;
unicode = 117;
},
{
glyphname = v;
kernLeft = v;
kernRight = v;
lastChange = "2023-04-04 06:09:11 +0000";
layers = (
{
hints = (
{
horizontal = 1;
place = (0, 44);
place = (0, 44);
type = Stem;
},
{
horizontal = 1;
place = (517, -20);
target = down;
type = TopGhost;
},
{
place = (9, 434);
place = (9, 434);
type = Stem;
}
);
layerId = m01;
shapes = (
{
closed = 1;
nodes = (
(193,0,l),
(254,0,l),
(443,517,l),
(393,517,l),
(224,44,l),
(222,44,l),
(61,517,l),
(9,517,l)
);
}
);
width = 452;
}
);
note = v;
unicode = 118;
},
{
glyphname = w;
kernLeft = w;
kernRight = w;
lastChange = "2023-04-04 06:11:08 +0000";
layers = (
{
hints = (
{
horizontal = 1;
place = (0, 45);
place = (0, 45);
type = Stem;
},
{
horizontal = 1;
place = (517, -20);
target = down;
type = TopGhost;
},
{
place = (14, 667);
place = (14, 667);
type = Stem;
},
{
horizontal = 1;
place = (465, 52);
place = (465, 52);
type = Stem;
}
);
layerId = m01;
shapes = (
{
closed = 1;
nodes = (
(161,0,l),
(222,0,l),
(344,465,l),
(346,465,l),
(464,0,l),
(523,0,l),
(681,517,l),
(632,517,l),
(496,45,l),
(494,45,l),
(373,517,l),
(318,517,l),
(192,45,l),
(190,45,l),
(65,517,l),
(14,517,l)
);
}
);
width = 695;
}
);
note = w;
unicode = 119;
},
{
glyphname = x;
kernLeft = x;
kernRight = x;
lastChange = "2023-04-04 06:12:47 +0000";
layers = (
{
hints = (
{
horizontal = 1;
place = (0, 21);
target = up;
type = BottomGhost;
},
{
horizontal = 1;
place = (517, -20);
target = down;
type = TopGhost;
},
{
place = (9, 448);
place = (9, 448);
type = Stem;
}
);
layerId = m01;
shapes = (
{
closed = 1;
nodes = (
(202,275,l),
(9,0,l),
(66,0,l),
(231,241,l),
(233,241,l),
(399,0,l),
(457,0,l),
(262,276,l),
(428,517,l),
(371,517,l),
(232,310,l),
(230,310,l),
(87,517,l),
(29,517,l)
);
}
);
width = 466;
}
);
note = x;
unicode = 120;
},
{
glyphname = y;
kernLeft = yacute;
kernRight = yacute;
lastChange = "2023-04-04 06:18:09 +0000";
layers = (
{
hints = (
{
horizontal = 1;
place = (-171, 45);
place = (-171, 45);
type = Stem;
},
{
horizontal = 1;
place = (517, -20);
target = down;
type = TopGhost;
},
{
place = (10, 436);
place = (10, 436);
type = Stem;
},
{
horizontal = 1;
place = (-165, 21);
target = up;
type = BottomGhost;
}
);
layerId = m01;
shapes = (
{
closed = 1;
nodes = (
(208,-8,l),
(203,-22,o),
(198,-37,o),
(193,-51,cs),
(174,-106,o),
(143,-126,o),
(100,-126,cs),
(78,-126,o),
(67,-123,o),
(57,-121,c),
(57,-165,l),
(68,-168,o),
(78,-171,o),
(96,-171,cs),
(166,-171,o),
(208,-146,o),
(238,-62,cs),
(446,517,l),
(396,517,l),
(234,46,l),
(232,46,l),
(61,517,l),
(10,517,l)
);
}
);
width = 455;
}
);
note = y;
unicode = 121;
},
